<svg width="94" height="62" viewBox="0 0 94 62" fill="none" xmlns="http://www.w3.org/2000/svg">
<path d="M2.77344 31.9766H7.1875V33.7344C8.72396 32.2109 10.4557 31.4492 12.3828 31.4492C14.5964 31.4492 16.3216 32.1458 17.5586 33.5391C18.6263 34.724 19.1602 36.6576 19.1602 39.3398V51H14.7461V40.375C14.7461 38.5 14.4857 37.2044 13.9648 36.4883C13.457 35.7591 12.5326 35.3945 11.1914 35.3945C9.73307 35.3945 8.69792 35.8763 8.08594 36.8398C7.48698 37.7904 7.1875 39.4505 7.1875 41.8203V51H2.77344V31.9766Z" fill="#F4F4F4"/>
<path d="M23.2 42.04C23.2 41.4 23.2533 40.72 23.36 40C23.4933 39.2533 23.68 38.4667 23.92 37.64C24.1867 36.7867 24.5067 35.8933 24.88 34.96L27.76 36.08C27.4933 36.8267 27.2533 37.5333 27.04 38.2C26.8533 38.8667 26.7067 39.4933 26.6 40.08C26.52 40.6667 26.48 41.2267 26.48 41.76C26.48 43.1467 26.84 44.2933 27.56 45.2C28.28 46.1067 29.2667 46.7867 30.52 47.24C31.7733 47.6933 33.1867 47.92 34.76 47.92C36.5467 47.92 38.04 47.68 39.24 47.2C40.4667 46.72 41.44 46.08 42.16 45.28C42.88 44.5067 43.3867 43.64 43.68 42.68C44 41.72 44.16 40.7733 44.16 39.84C44.16 38.8267 43.96 37.6 43.56 36.16C43.1867 34.72 42.48 32.9333 41.44 30.8L44.44 29.28C44.9733 30.2933 45.4533 31.36 45.88 32.48C46.3333 33.5733 46.6933 34.7067 46.96 35.88C47.2533 37.0267 47.4 38.2 47.4 39.4C47.4 40.44 47.2667 41.5067 47 42.6C46.76 43.6933 46.3467 44.7467 45.76 45.76C45.1733 46.8 44.3867 47.72 43.4 48.52C42.44 49.3467 41.24 50 39.8 50.48C38.3867 50.96 36.6933 51.2 34.72 51.2C33.1733 51.2 31.6933 51.0133 30.28 50.64C28.8933 50.2933 27.6667 49.7467 26.6 49C25.56 48.2533 24.7333 47.3067 24.12 46.16C23.5067 45.0133 23.2 43.64 23.2 42.04ZM35.28 26.08C34.72 26.08 34.24 25.8933 33.84 25.52C33.4667 25.12 33.28 24.6533 33.28 24.12C33.28 23.5867 33.4667 23.12 33.84 22.72C34.24 22.32 34.72 22.12 35.28 22.12C35.8133 22.12 36.2667 22.32 36.64 22.72C37.04 23.12 37.24 23.5867 37.24 24.12C37.24 24.6533 37.04 25.12 36.64 25.52C36.2667 25.8933 35.8133 26.08 35.28 26.08Z" fill="#F4F4F4"/>
<path d="M86.2109 31.9766H90.625V51H86.2109V49.0078C84.401 50.7005 82.4544 51.5469 80.3711 51.5469C77.7409 51.5469 75.5664 50.5964 73.8477 48.6953C72.1419 46.7552 71.2891 44.3333 71.2891 41.4297C71.2891 38.5781 72.1419 36.2018 73.8477 34.3008C75.5534 32.3997 77.6888 31.4492 80.2539 31.4492C82.4674 31.4492 84.4531 32.3607 86.2109 34.1836V31.9766ZM75.7812 41.4297C75.7812 43.2526 76.2695 44.737 77.2461 45.8828C78.2487 47.0417 79.5117 47.6211 81.0352 47.6211C82.6628 47.6211 83.9779 47.0612 84.9805 45.9414C85.9831 44.7826 86.4844 43.3112 86.4844 41.5273C86.4844 39.7435 85.9831 38.2721 84.9805 37.1133C83.9779 35.9805 82.6758 35.4141 81.0742 35.4141C79.5638 35.4141 78.3008 35.987 77.2852 37.1328C76.2826 38.2917 75.7812 39.724 75.7812 41.4297Z" fill="#F4F4F4"/>
<path d="M55.1367 31.9766L60.0586 42.6602L64.9609 31.9766H69.9023L60.0195 52.3086L50.2148 31.9766H55.1367Z" fill="#F4F4F4"/>
</svg>
